<svg width="32" height="32" viewBox="0 0 32 32" fill="none" xmlns="http://www.w3.org/2000/svg">
<path fill-rule="evenodd" clip-rule="evenodd" d="M4 9C4 7.89543 4.89543 7 6 7H12.5C12.9714 7 13.4242 7.17559 13.7678 7.4906L15.4338 9H26C27.1046 9 28 9.89543 28 11V23C28 24.1046 27.1046 25 26 25H6C4.89543 25 4 24.1046 4 23V9ZM9.5 13C9.5 12.4477 9.94772 12 10.5 12C11.0523 12 11.5 12.4477 11.5 13V19C11.5 19.5523 11.0523 20 10.5 20C9.94772 20 9.5 19.5523 9.5 19V13ZM13 14.5C13 13.9477 13.4477 13.5 14 13.5C14.5523 13.5 15 13.9477 15 14.5V17.5C15 18.0523 14.5523 18.5 14 18.5C13.4477 18.5 13 18.0523 13 17.5V14.5ZM17.5 13C17.5 12.4477 17.9477 12 18.5 12C19.0523 12 19.5 12.4477 19.5 13V19C19.5 19.5523 19.0523 20 18.5 20C17.9477 20 17.5 19.5523 17.5 19V13ZM22 15C22 14.4477 22.4477 14 23 14C23.5523 14 24 14.4477 24 15V17C24 17.5523 23.5523 18 23 18C22.4477 18 22 17.5523 22 17V15Z" fill="#396CF6"/>
</svg>
