<svg width="32" height="32" viewBox="0 0 32 32" fill="none" xmlns="http://www.w3.org/2000/svg">
  <path fill="#396CF6" d="M15,26 L9,26 Q7,26 7,24 L7,8 Q7,6 9,6 L23,6 Q25,6 25,8 L25,16 Q25,16.414 24.707,16.707 Q24.414,17 24,17 Q23.586,17 23.293,16.707 Q23,16.414 23,16 L23,8 L9,8 L9,24 L15,24 Q15.414,24 15.707,24.293 Q16,24.586 16,25 Q16,25.414 15.707,25.707 Q15.414,26 15,26 Z"/>
  <path fill="#396CF6" d="M12,10 L20,10 Q20.414,10 20.707,10.293 Q21,10.586 21,11 Q21,11.414 20.707,11.707 Q20.414,12 20,12 L12,12 Q11.586,12 11.293,11.707 Q11,11.414 11,11 Q11,10.586 11.293,10.293 Q11.586,10 12,10 Z"/>
  <path fill="#396CF6" d="M12,14 L20,14 Q20.414,14 20.707,14.293 Q21,14.586 21,15 Q21,15.414 20.707,15.707 Q20.414,16 20,16 L12,16 Q11.586,16 11.293,15.707 Q11,15.414 11,15 Q11,14.586 11.293,14.293 Q11.586,14 12,14 Z"/>
  <path fill="#396CF6" d="M12,18 L17,18 Q17.414,18 17.707,18.293 Q18,18.586 18,19 Q18,19.414 17.707,19.707 Q17.414,20 17,20 L12,20 Q11.586,20 11.293,19.707 Q11,19.414 11,19 Q11,18.586 11.293,18.293 Q11.586,18 12,18 Z"/>
  <path fill="#396CF6" d="M20.707,21.293 L22,22.586 L25.293,19.293 Q25.586,19 26,19 Q26.414,19 26.707,19.293 Q27,19.586 27,20 Q27,20.414 26.707,20.707 L22.707,24.707 Q22.414,25 22,25 Q21.586,25 21.293,24.707 L19.293,22.707 Q19,22.414 19,22 Q19,21.586 19.293,21.293 Q19.586,21 20,21 Q20.414,21 20.707,21.293 Z"/>
</svg>
